<?xml version="1.0" encoding="UTF-8" standalone="no"?>
<!-- Created with Inkscape (http://www.inkscape.org/) -->

<svg
   version="1.1"
   id="svg1"
   width="1007.4619"
   height="1161.5099"
   viewBox="0 0 1007.4619 1161.5099"
   xmlns="http://www.w3.org/2000/svg"
   xmlns:svg="http://www.w3.org/2000/svg">
  <defs
     id="defs1">
    <clipPath
       clipPathUnits="userSpaceOnUse"
       id="clipPath113">
      <path
         d="m 12815.8,2894.93 603,350.45 547.8,-316.27 -603,-350.41 z"
         id="path113" />
    </clipPath>
    <clipPath
       clipPathUnits="userSpaceOnUse"
       id="clipPath115">
      <path
         d="m 12815.8,2894.93 603,350.45 547.8,-316.27 -603,-350.41 z"
         id="path115" />
    </clipPath>
    <clipPath
       clipPathUnits="userSpaceOnUse"
       id="clipPath117">
      <path
         d="m 12588.9,5152.77 -1.4,494.04 583.8,337.07 1.4,-494.04 z"
         id="path117" />
    </clipPath>
    <clipPath
       clipPathUnits="userSpaceOnUse"
       id="clipPath119">
      <path
         d="m 12588.9,5152.77 -1.4,494.04 583.8,337.07 1.4,-494.04 z"
         id="path119" />
    </clipPath>
    <clipPath
       clipPathUnits="userSpaceOnUse"
       id="clipPath121">
      <path
         d="m 15143.9,6250.49 1.7,570.92 1240,-715.93 -1.6,-570.92 z"
         id="path121" />
    </clipPath>
    <clipPath
       clipPathUnits="userSpaceOnUse"
       id="clipPath123">
      <path
         d="m 15143.9,6250.49 1.7,570.92 1240,-715.93 -1.6,-570.92 z"
         id="path123" />
    </clipPath>
    <clipPath
       clipPathUnits="userSpaceOnUse"
       id="clipPath125">
      <path
         d="m 15143.9,6250.49 1.7,570.92 1240,-715.93 -1.6,-570.92 z"
         id="path125" />
    </clipPath>
    <clipPath
       clipPathUnits="userSpaceOnUse"
       id="clipPath127">
      <path
         d="m 15143.9,6250.49 1.7,570.92 1240,-715.93 -1.6,-570.92 z"
         id="path127" />
    </clipPath>
    <clipPath
       clipPathUnits="userSpaceOnUse"
       id="clipPath131">
      <path
         d="m 15140.4,761.102 -1.4,483.898 2907.2,1678.43 1.4,-483.83 z"
         id="path131" />
    </clipPath>
    <clipPath
       clipPathUnits="userSpaceOnUse"
       id="clipPath133">
      <path
         d="m 15140.4,761.102 -1.4,483.898 2907.2,1678.43 1.4,-483.83 z"
         id="path133" />
    </clipPath>
    <clipPath
       clipPathUnits="userSpaceOnUse"
       id="clipPath135">
      <path
         d="m 15140.4,761.102 -1.4,483.898 2907.2,1678.43 1.4,-483.83 z"
         id="path135" />
    </clipPath>
    <clipPath
       clipPathUnits="userSpaceOnUse"
       id="clipPath137">
      <path
         d="m 15140.4,761.102 -1.4,483.898 2907.2,1678.43 1.4,-483.83 z"
         id="path137" />
    </clipPath>
    <clipPath
       clipPathUnits="userSpaceOnUse"
       id="clipPath139">
      <path
         d="m 15140.4,761.102 -1.4,483.898 2907.2,1678.43 1.4,-483.83 z"
         id="path139" />
    </clipPath>
    <clipPath
       clipPathUnits="userSpaceOnUse"
       id="clipPath141">
      <path
         d="m 15140.4,761.102 -1.4,483.898 2907.2,1678.43 1.4,-483.83 z"
         id="path141" />
    </clipPath>
    <clipPath
       clipPathUnits="userSpaceOnUse"
       id="clipPath143">
      <path
         d="m 15140.4,761.102 -1.4,483.898 2907.2,1678.43 1.4,-483.83 z"
         id="path143" />
    </clipPath>
    <clipPath
       clipPathUnits="userSpaceOnUse"
       id="clipPath145">
      <path
         d="m 15140.4,761.102 -1.4,483.898 2907.2,1678.43 1.4,-483.83 z"
         id="path145" />
    </clipPath>
    <clipPath
       clipPathUnits="userSpaceOnUse"
       id="clipPath147">
      <path
         d="m 15140.4,761.102 -1.4,483.898 2907.2,1678.43 1.4,-483.83 z"
         id="path147" />
    </clipPath>
  </defs>
  <g
     id="g1"
     transform="translate(-1466.3308,-554.0688)">
    <g
       id="hollow-cube"
       style="display:inline">
      <g
         id="g154"
         style="display:inline">
        <path
           id="path97"
           d="m 18378,6465.28 c 8.6,-4.97 8.6,-17.4 0,-22.38 l -1027.7,-593.41 c -0.4,2 -1.6,3.7 -3.3,4.7 l -2560.7,1478.4 c -5,2.9 -11.3,-0.7 -11.3,-6.5 v -0.7 c 0,6.1 -6.6,9.9 -11.9,6.8 l -2559.9,-1477.9 c -2.2,-1.3 -3.6,-3.6 -3.7,-6.1 l -1027.6,593.21 c -8.6,4.98 -8.6,17.41 0,22.38 l 3597.8,2077.28 c 4,2.31 9,2.31 12.9,0 L 18378,6465.28"
           style="fill:#3e4042;fill-opacity:1;fill-rule:nonzero;stroke:none;stroke-width:300;stroke-linecap:butt;stroke-linejoin:miter;stroke-miterlimit:10;stroke-dasharray:none;stroke-opacity:1"
           transform="matrix(0.13333333,0,0,-0.13333333,0,1716.04)" />
        <path
           id="path98"
           d="M 14773.6,1384.4 V 197.102 c 0,-10 -10.8,-16.2 -19.4,-11.2 L 11157.6,2262.4 c -3.9,2.3 -6.4,6.5 -6.4,11.2 v 4178.29 l 1.3,0.7 1047,-604.4 c -0.1,-0.1 -0.1,-0.3 -0.1,-0.4 v -2956.8 c 0,-5.7 6.3,-9.3 11.2,-6.4 l -7.1,-4.1 c -1.8,-1.1 -1.8,-3.7 0,-4.7 L 14767.1,1395.6 c 4,-2.3 6.5,-6.5 6.5,-11.2"
           style="fill:#222223;fill-opacity:1;fill-rule:nonzero;stroke:none"
           transform="matrix(0.13333333,0,0,-0.13333333,0,1716.04)" />
        <path
           id="path100"
           d="m 17350.5,5847.99 v -2957.5 c 0,-5.4 -5.6,-8.7 -10.3,-6.3 l -1025.1,591.8 -1536.5,887.1 c -2.2,1.2 -3.6,3.6 -3.6,6.1 v 2956.9 c 0,5.8 6.3,9.4 11.3,6.5 L 17347,5854.19 c 1.7,-1 2.9,-2.7 3.3,-4.7 0.1,-0.5 0.2,-1 0.2,-1.5"
           style="fill:#222223;fill-opacity:1;fill-rule:nonzero;stroke:none"
           transform="matrix(0.13333333,0,0,-0.13333333,0,1716.04)" />
        <path
           id="path102"
           d="m 12201.9,5847.99 v -2957.5 c 0,-5.4 5.6,-8.7 10.3,-6.3 l 1025.1,591.8 1536.5,887.1 c 2.2,1.2 3.6,3.6 3.6,6.1 v 2956.9 c 0,5.8 -6.3,9.4 -11.3,6.5 l -2560.7,-1478.4 c -1.7,-1 -2.9,-2.7 -3.3,-4.7 -0.1,-0.5 -0.2,-1 -0.2,-1.5"
           style="fill:#040606;fill-opacity:1;fill-rule:nonzero;stroke:none"
           transform="matrix(0.13333333,0,0,-0.13333333,0,1716.04)" />
        <path
           id="path104"
           d="M 17346.5,2875.79 14776.3,1391.9 c -0.8,-0.5 -1.8,-0.5 -2.7,0 l -2570.1,1483.89 c -1.8,1 -1.8,3.6 0,4.7 l 7.1,4.1 2560.7,1478.4 2.3,1.3 c 0.9,0.5 1.9,0.5 2.7,0 l 1538.8,-888.3 1025.1,-591.8 6.3,-3.7 c 1.8,-1.1 1.8,-3.7 0,-4.7"
           style="fill:#3e4042;fill-opacity:1;fill-rule:nonzero;stroke:none"
           transform="matrix(0.13333333,0,0,-0.13333333,0,1716.04)" />
        <path
           id="path128"
           d="M 18401.2,6451.89 V 2273.6 c 0,-4.7 -2.5,-8.9 -6.5,-11.2 l -3618.5,-2089.197 -2.6,1.496 V 1019.9 c 0.9,-0.5 1.9,371.5 2.7,372 l 2570.2,1483.89 c 1.8,1 1.8,3.6 0,4.7 l -6.3,3.7 c 4.7,-2.4 10.3,0.9 10.3,6.3 v 2957.5 c 0,0.5 -0.1,1 -0.2,1.5 l 1047.1,604.6 3.8,-2.2"
           style="display:inline;fill:#040606;fill-opacity:1;fill-rule:nonzero;stroke:none"
           transform="matrix(0.13333333,0,0,-0.13333333,0,1716.04)" />
      </g>
      <g
         id="g153"
         style="display:inline">
        <path
           id="path97-6"
           d="m 2450.4001,854.02856 c 1.1467,0.6626 1.1467,2.32 0,2.984 l -137.0266,79.1213 c -0.053,-0.2667 -0.2134,-0.4933 -0.44,-0.6267 l -341.4267,-197.12 c -0.6666,-0.3866 -1.5066,0.093 -1.5066,0.8667 v 0.093 c 0,-0.8134 -0.88,-1.32 -1.5867,-0.9067 l -341.32,197.0533 c -0.2933,0.1734 -0.48,0.48 -0.4933,0.8134 l -137.0134,-79.0947 c -1.1466,-0.664 -1.1466,-2.3213 0,-2.984 L 1969.2935,577.2578 c 0.5333,-0.308 1.2,-0.308 1.72,0 l 479.3866,276.77066"
           style="display:none;fill:none;fill-opacity:1;fill-rule:nonzero;stroke:#4fbe37;stroke-width:40;stroke-linecap:round;stroke-linejoin:round;stroke-miterlimit:10;stroke-dasharray:none;stroke-opacity:1;paint-order:normal" />
        <path
           id="path99"
           d="M 14773.6,1384.4 V 197.102 c 0,-10 -10.8,-16.2 -19.4,-11.2 L 11157.6,2262.4 c -3.9,2.3 -6.4,6.5 -6.4,11.2 v 4178.29 l 1.3,0.7 1047,-604.4 c -0.1,-0.1 -0.1,-0.3 -0.1,-0.4 v -2956.8 c 0,-5.7 6.3,-9.3 11.2,-6.4 l -7.1,-4.1 c -1.8,-1.1 -1.8,-3.7 0,-4.7 L 14767.1,1395.6 c 4,-2.3 6.5,-6.5 6.5,-11.2 z"
           style="display:none;fill:none;stroke:#4fbe37;stroke-width:300;stroke-linecap:butt;stroke-linejoin:round;stroke-miterlimit:10;stroke-dasharray:none;stroke-opacity:1;paint-order:stroke fill markers"
           transform="matrix(0.13333333,0,0,-0.13333333,0,1716.04)" />
        <path
           id="path101"
           d="m 17350.5,5847.99 v -2957.5 c 0,-5.4 -5.6,-8.7 -10.3,-6.3 l -1025.1,591.8 -1536.5,887.1 c -2.2,1.2 -3.6,3.6 -3.6,6.1 v 2956.9 c 0,5.8 6.3,9.4 11.3,6.5 L 17347,5854.19 c 1.7,-1 2.9,-2.7 3.3,-4.7 0.1,-0.5 0.2,-1 0.2,-1.5 z"
           style="display:none;fill:none;stroke:#4fbe37;stroke-width:300;stroke-linecap:round;stroke-linejoin:round;stroke-miterlimit:10;stroke-dasharray:none;stroke-opacity:1;paint-order:stroke fill markers"
           transform="matrix(0.13333333,0,0,-0.13333333,0,1716.04)" />
        <path
           id="path103"
           d="m 12201.9,5847.99 v -2957.5 c 0,-5.4 5.6,-8.7 10.3,-6.3 l 1025.1,591.8 1536.5,887.1 c 2.2,1.2 3.6,3.6 3.6,6.1 v 2956.9 c 0,5.8 -6.3,9.4 -11.3,6.5 l -2560.7,-1478.4 c -1.7,-1 -2.9,-2.7 -3.3,-4.7 -0.1,-0.5 -0.2,-1 -0.2,-1.5 z"
           style="display:none;fill:none;stroke:#4fbe37;stroke-width:300;stroke-linecap:round;stroke-linejoin:round;stroke-miterlimit:10;stroke-dasharray:none;stroke-opacity:1;paint-order:stroke fill markers"
           transform="matrix(0.13333333,0,0,-0.13333333,0,1716.04)" />
        <path
           id="path105"
           d="M 17346.5,2875.79 14776.3,1391.9 c -0.8,-0.5 -1.8,-0.5 -2.7,0 l -2570.1,1483.89 c -1.8,1 -1.8,3.6 0,4.7 l 7.1,4.1 2560.7,1478.4 2.3,1.3 c 0.9,0.5 1.9,0.5 2.7,0 l 1538.8,-888.3 1025.1,-591.8 6.3,-3.7 c 1.8,-1.1 1.8,-3.7 0,-4.7 z"
           style="display:none;fill:none;stroke:#4fbe37;stroke-width:300;stroke-linecap:butt;stroke-linejoin:miter;stroke-miterlimit:10;stroke-dasharray:none;stroke-opacity:1;paint-order:stroke fill markers"
           transform="matrix(0.13333333,0,0,-0.13333333,0,1716.04)" />
        <path
           id="path129"
           d="M 18401.2,6451.89 V 2273.6 c 0,-4.7 -2.5,-8.9 -6.5,-11.2 l -3618.5,-2089.197 -2.6,1.496 V 1019.9 c 0.9,332.0523 1.9,371.5 2.7,372 l 2570.2,1483.89 c 1.8,1 1.8,3.6 0,4.7 l -6.3,3.7 c 4.7,-2.4 10.3,0.9 10.3,6.3 v 2957.5 c 0,0.5 -0.1,1 -0.2,1.5 l 1047.1,604.6 z"
           style="display:none;fill:none;stroke:#4fbe37;stroke-width:300;stroke-linecap:round;stroke-linejoin:round;stroke-miterlimit:10;stroke-dasharray:none;stroke-opacity:1;paint-order:stroke fill markers"
           transform="matrix(0.13333333,0,0,-0.13333333,0,1716.04)" />
        <path
           style="color:#000000;display:inline;fill:#4fbe37;stroke-linecap:round;stroke-linejoin:round;stroke-miterlimit:10;-inkscape-stroke:none"
           d="m 1970.0533,554.06876 -503.3913,290.3385 159.8127,93.25038 343.3314,-196.96729 344.4527,196.84184 159.534,-93.4123 c 0,0 -338.1114,-194.73016 -503.7395,-290.05113 z m 0.1014,45.78671 442.832,255.66601 -98.4213,57.33204 -344.408,-193.87122 c 0,0 -231.0828,128.76975 -344.0125,193.96688 l -99.1367,-57.23047 z"
           id="path169" />
        <path
           style="color:#000000;display:inline;fill:#4fbe37;stroke-miterlimit:10;-inkscape-stroke:none;paint-order:stroke fill markers"
           d="m 14773.322,1387.6417 -2574.897,1487.7399 2577.089,1486.6137 2583.19,-1485.4435 z m 1.629,176.6845 2275.666,1313.8418 -2275.685,1313.7148 -2275.504,-1313.7441 z"
           id="path166"
           transform="matrix(0.13333333,0,0,-0.13333333,0,1716.04)" />
        <path
           style="color:#000000;display:inline;fill:#44a52e;fill-opacity:1;stroke-width:0.133333;stroke-linejoin:round;stroke-miterlimit:10;-inkscape-stroke:none;paint-order:stroke fill markers"
           d="m 2314.2876,1333.1123 c -0.2397,0.9128 0.6313,-395.83617 0.3134,-395.49609 0,0 -344.3286,-197.33729 -344.6428,-197.19041 0.1434,-0.0354 -0.3151,394.2261 -0.3151,394.2261 z m -21.2912,-35.478 -303.4,-175.1638 V 772.13221 l 303.4,175.16562 z"
           id="path168" />
        <path
           style="color:#000000;display:inline;fill:#44a52e;fill-opacity:1;stroke-width:0.133333;stroke-linecap:round;stroke-linejoin:round;stroke-miterlimit:10;-inkscape-stroke:none;paint-order:stroke fill markers"
           d="m 1969.6568,1715.3641 c 0,0 0.3664,-127.6753 0.3268,-184.2138 0,0 -340.94,-199.6647 -341.0331,-199.8667 l -1.6949,-393.38455 -160.5064,-93.64009 c -0.3236,-0.18883 -0.4166,580.26374 -0.4166,580.26374 -1.1102,-0.1032 503.324,290.8414 503.324,290.8414 z m -19.4969,-56.859 L 1506.48,1402.3395 V 889.84499 l 100.0932,57.79401 2.5699,394.0952 340.8473,200.3761 c 0.2579,38.7977 0.1695,77.5965 0.1695,116.3948 z m -311.5627,-310.1703 0.015,-0.011 c -0.01,0 -0.01,0.01 -0.015,0.011 z m -19.7461,-34.6656 c 1.1037,-0.5636 2.2455,-0.986 3.4083,-1.2792 -1.1727,0.3219 -2.3135,0.7501 -3.4083,1.2792 z"
           id="path167" />
        <path
           style="color:#000000;display:inline;fill:#2e751e;fill-opacity:1;stroke-linecap:round;stroke-linejoin:round;stroke-miterlimit:10;-inkscape-stroke:none;paint-order:stroke fill markers"
           d="m 14771.74,3.4593714 c 0,0 2.885,962.3939486 3.182,1386.4322286 0,0 1747.463,1009.5978 2581.887,1486.0715 l 2.397,2964.176 1191.993,698.5081 c -1.277,-0.7483 1.104,-4352.2674 1.104,-4352.2674 C 18560.63,2187.1541 14771.74,3.4593714 14771.74,3.4593714 Z M 14923.6,431.51172 18251.199,2352.7539 v 3843.709 L 17500.5,5763.0078 17481.226,2807.2935 14924.871,1304.4727 c -1.934,-290.9827 -1.271,-581.97386 -1.271,-872.96098 z m 2336.72,2326.27738 -0.111,0.084 c 0.04,-0.027 0.07,-0.057 0.111,-0.084 z"
           id="path164"
           transform="matrix(0.13333333,0,0,-0.13333333,0,1716.04)" />
        <path
           style="color:#000000;display:inline;fill:#2e751e;fill-opacity:1;stroke-linejoin:round;stroke-miterlimit:10;-inkscape-stroke:none;paint-order:stroke fill markers"
           d="m 12192.216,2871.9579 c 1.798,-1.4908 7.007,2977.0107 10.04,2978.74 l 2573.114,1467.0915 c -1.076,0.2654 -1.608,-2957.3785 -1.608,-2957.3785 z m 159.684,266.0851 2275.5,1313.7285 V 7079.3086 L 12351.9,5765.5664 Z"
           id="path165"
           transform="matrix(0.13333333,0,0,-0.13333333,0,1716.04)" />
      </g>
      <g
         id="g159">
        <g
           id="g148"
           style="display:inline"
           transform="translate(24,-6)">
          <path
             id="path112"
             d="m 13437.6,2864.6 c -13.3,7.63 -27.7,13.82 -43.2,18.46 -15.4,4.72 -31.9,7.38 -49.6,8.04 -17.7,0.63 -36.2,-0.85 -55.8,-4.5 -19.4,-3.61 -39.9,-9.77 -61.6,-18.5 l -17.1,-7.3 -117.2,67.68 c 17.2,7.85 35.1,13.12 53.6,15.81 18.6,2.65 37.9,3.24 58.2,1.77 l 3.6,44.35 c -29.5,2.17 -57.8,0.88 -84.9,-3.8 -27.2,-4.68 -54.2,-13.35 -80.9,-25.88 l -57.1,32.92 -46.1,-26.84 57,-32.92 c -31.5,-22.59 -47.6,-44.89 -48.5,-66.89 -0.8,-22.1 14.5,-42.2 45.9,-60.3 13.3,-7.6 27.6,-13.8 42.9,-18.3 15.3,-4.6 31.7,-7.3 49.3,-8.2 17.7,-0.8 36.3,0.5 55.7,4.2 19.6,3.6 40,9.8 61.7,18.5 l 14.8,6.1 126.8,-73.2 c -19.5,-9.1 -40.3,-15.3 -62.5,-18.7 -22.3,-3.3 -47.2,-4.2 -74.7,-2.7 l -1.4,-45 c 30.5,-2.8 61.6,-1.6 93.2,3.5 31.6,5.1 63.1,15.5 94.6,31.3 l 56.5,-32.6 46.2,26.8 -58.2,33.6 c 32.3,23.9 48.1,47.3 47.4,70.4 -0.7,23.1 -16.9,43.8 -48.6,62.2 m -170.8,-36.4 c 24.9,9.7 46.2,14.7 63.9,15 17.6,0.2 34.7,-4.5 51.3,-14.1 17.4,-10 26.2,-20.9 26.7,-32.6 0.4,-11.7 -7.4,-23.9 -23.5,-36.7 l -118.4,68.4 m -216.3,13.4 c -32.1,18.5 -31.8,39.8 0.7,63.84 l 110.7,-63.84 c -24.2,-9 -45,-13.5 -62.2,-13.5 -17.3,0 -33.7,4.5 -49.2,13.5"
             style="fill:#ffffff;fill-opacity:1;fill-rule:nonzero;stroke:none"
             transform="matrix(0.13333333,0,0,-0.13333333,0,1716.04)"
             clip-path="url(#clipPath113)" />
          <path
             id="path114"
             d="m 13966.6,2929.11 -51.9,30 -263.9,-153.31 51.9,-30 263.9,153.31"
             style="fill:#4fbe37;fill-opacity:1;fill-rule:nonzero;stroke:none"
             transform="matrix(0.13333333,0,0,-0.13333333,0,1716.04)"
             clip-path="url(#clipPath115)" />
        </g>
        <g
           id="g158">
          <g
             id="g149"
             style="display:inline">
            <path
               id="path116"
               d="m 12587.5,5646.81 0.2,-68.01 183.5,-10.01 v -5.06 l -182.9,-222.12 0.2,-67.42 237.6,290.64 -0.2,66.11 -238.4,15.87"
               style="fill:#ffffff;fill-opacity:1;fill-rule:nonzero;stroke:none"
               transform="matrix(0.13333333,0,0,-0.13333333,0,1716.04)"
               clip-path="url(#clipPath117)" />
            <path
               id="path118"
               d="m 13172.5,5549.63 -265.6,-153.34 0.2,-59.8 265.6,153.35 -0.2,59.79"
               style="fill:#4fbe37;fill-opacity:1;fill-rule:nonzero;stroke:none"
               transform="matrix(0.13333333,0,0,-0.13333333,0,1716.04)"
               clip-path="url(#clipPath119)" />
          </g>
        </g>
        <g
           id="g150"
           style="display:inline">
          <path
             id="path120"
             d="m 15280.1,6596.02 c -21,12.13 -39.9,19.01 -56.7,20.63 -16.8,1.62 -31,-1.64 -42.7,-9.75 -11.7,-8.11 -20.6,-21.03 -26.7,-38.73 -6.2,-17.67 -9.3,-39.63 -9.3,-65.89 -0.1,-26.34 2.8,-51.77 8.9,-76.51 6,-24.71 14.8,-47.81 26.4,-69.41 11.6,-21.53 25.7,-41.15 42.5,-58.92 16.8,-17.69 35.8,-32.75 57.2,-45.1 29.9,-17.25 54.3,-24.14 73.1,-20.52 18.9,3.65 32.9,14.14 42.3,31.61 l -44.2,56.72 c -6.8,-12.27 -15.7,-19.8 -27,-22.63 -11.3,-2.83 -25.8,0.85 -43.4,11.06 -23.7,13.64 -41.7,32.14 -54.2,55.58 -12.5,23.47 -18.7,48.21 -18.6,74.18 l 0.1,54.95 c 0.1,26.49 6.4,44.08 19,52.81 12.6,8.7 30.3,6.48 53.2,-6.71 16.6,-9.59 30.1,-21.84 40.6,-36.84 10.5,-14.96 18.3,-31.6 23.4,-49.84 l 47.2,2.1 c -8.8,27.94 -22.2,54.17 -40,78.73 -17.9,24.62 -41.5,45.42 -71.1,62.48"
             style="fill:#ffffff;fill-opacity:1;fill-rule:nonzero;stroke:none"
             transform="matrix(0.13333333,0,0,-0.13333333,0,1716.04)"
             clip-path="url(#clipPath121)" />
          <path
             id="path122"
             d="m 15602.2,6408.77 c -17.7,10.21 -30.2,13.22 -37.4,8.87 -7.2,-4.38 -10.9,-12.62 -10.9,-24.95 l -0.1,-16.5 c 0,-12.33 3.6,-24.78 10.7,-37.41 7.2,-12.61 19.7,-24.05 37.4,-34.26 17.7,-10.25 30.2,-13.18 37.3,-8.87 7.3,4.34 10.9,12.62 10.9,24.95 l 0.1,16.5 c 0,12.33 -3.5,24.74 -10.7,37.41 -7.2,12.64 -19.6,24.01 -37.3,34.26 m -0.7,-236.53 c -17.7,10.21 -30.2,13.22 -37.4,8.88 -7.2,-4.39 -10.8,-12.63 -10.9,-24.96 v -16.5 c -0.1,-12.33 3.5,-24.77 10.7,-37.41 7.2,-12.6 19.6,-24.05 37.3,-34.26 17.7,-10.25 30.2,-13.18 37.4,-8.87 7.2,4.34 10.8,12.62 10.9,24.95 v 16.51 c 0,12.32 -3.5,24.73 -10.7,37.41 -7.1,12.64 -19.6,24.01 -37.3,34.25"
             style="fill:#4fbe37;fill-opacity:1;fill-rule:nonzero;stroke:none"
             transform="matrix(0.13333333,0,0,-0.13333333,0,1716.04)"
             clip-path="url(#clipPath123)" />
          <path
             id="path124"
             d="m 15868.2,6404.21 -53.7,30.96 184.9,-678.56 53.7,-31 -184.9,678.6"
             style="fill:#4fbe37;fill-opacity:1;fill-rule:nonzero;stroke:none"
             transform="matrix(0.13333333,0,0,-0.13333333,0,1716.04)"
             clip-path="url(#clipPath125)" />
          <path
             id="path126"
             d="m 16147.3,6139.86 -0.1,-68.01 182.8,-221.45 v -5.14 l -183.5,-10.6 -0.2,-67.34 238.4,15.8 0.2,66.17 -237.6,290.57"
             style="fill:#ffffff;fill-opacity:1;fill-rule:nonzero;stroke:none"
             transform="matrix(0.13333333,0,0,-0.13333333,0,1716.04)"
             clip-path="url(#clipPath127)" />
        </g>
      </g>
      <g
         id="g147"
         style="display:inline">
        <path
           id="path130"
           d="m 15274.5,1182.4 c -21,-12.1 -39.9,-27 -56.7,-44.8 -16.8,-17.8 -31,-37.4 -42.6,-59 -11.5,-21.5 -20.3,-44.6 -26.4,-69.4 -6,-24.7 -9,-50.098 -8.9,-76.399 0.1,-26.301 3.2,-48.301 9.3,-66 6.2,-17.598 15.1,-30.5 26.8,-38.699 11.6,-8.102 25.9,-11.301 42.7,-9.7 16.8,1.7 35.9,8.598 57.3,21 29.9,17.301 54.2,38.5 73,63.801 18.7,25.399 32.7,52.098 41.8,80.199 l -44.3,5.598 c -6.6,-19.898 -15.5,-37.801 -26.7,-53.598 -11.3,-15.8 -25.7,-28.902 -43.4,-39.101 -23.6,-13.598 -41.8,-16 -54.3,-7 -12.6,8.902 -19,26.402 -19,52.402 l -0.2,55 c -0.1,26.397 6.1,51.297 18.7,74.497 12.4,23.2 30.2,41.4 53,54.6 16.6,9.6 30.2,13 40.7,10.1 10.6,-2.8 18.4,-10.4 23.6,-22.7 l 47,56.5 c -8.9,17.7 -22.3,28.5 -40.3,32.4 -17.9,3.9 -41.6,-2.6 -71.1,-19.7"
           style="fill:#ffffff;fill-opacity:1;fill-rule:nonzero;stroke:none"
           transform="matrix(0.13333333,0,0,-0.13333333,0,1716.04)"
           clip-path="url(#clipPath131)" />
        <path
           id="path132"
           d="m 15596.5,1368.4 c -21.1,-12.2 -40,-27.1 -56.7,-44.9 -16.7,-17.7 -30.9,-37.4 -42.5,-58.9 -11.6,-21.6 -20.5,-44.8 -26.7,-69.6 -6.2,-24.8 -9.2,-50.3 -9.2,-76.6 0.1,-26.3 3.3,-48.2 9.6,-65.8 6.3,-17.6 15.3,-30.4 27,-38.6 11.7,-8.1 25.9,-11.3 42.7,-9.7 16.8,1.7 35.7,8.6 56.8,20.7 21,12.1 39.9,27.1 56.6,44.8 16.8,17.7 30.9,37.4 42.6,58.9 11.6,21.6 20.4,44.7 26.7,69.6 6.1,24.8 9.2,50.3 9.1,76.7 0,26.2 -3.2,48.1 -9.6,65.7 -6.3,17.5 -15.3,30.5 -26.9,38.6 -11.7,8.1 -26,11.3 -42.8,9.7 -16.8,-1.6 -35.7,-8.5 -56.7,-20.6 m 0.8,-288.7 c -22.1,-12.8 -39.8,-15.3 -52.9,-7.4 -13.1,8 -19.8,27.2 -19.9,57.7 l -0.1,49.6 c -0.1,30.5 6.4,57.3 19.5,80.3 13,23.1 30.6,40.9 52.8,53.7 22.1,12.8 39.7,15.3 52.8,7.3 13.2,-7.8 19.8,-27.1 19.9,-57.6 l 0.1,-49.6 c 0.1,-30.5 -6.3,-57.3 -19.4,-80.4 -13.1,-23 -30.7,-40.9 -52.8,-53.6"
           style="fill:#ffffff;fill-opacity:1;fill-rule:nonzero;stroke:none"
           transform="matrix(0.13333333,0,0,-0.13333333,0,1716.04)"
           clip-path="url(#clipPath133)" />
        <path
           id="path134"
           d="m 15954.5,1575.1 c -11.8,-6.9 -22.1,-14.5 -31,-23.1 -8.8,-8.5 -16.5,-17.5 -23.2,-27 -6.6,-9.6 -12.2,-19.6 -16.8,-30.1 -4.6,-10.5 -8.3,-20.8 -11.3,-31 l -2.8,-1.7 -0.1,56 -60.3,-34.8 0.9,-328.1 60.3,34.8 -0.6,222.5 c 0,9.4 1.7,18.7 5.2,27.9 3.5,9.2 8.1,17.8 14.1,26 5.8,8 12.5,15.3 19.9,22 7.3,6.5 14.9,12 22.6,16.5 39.5,22.8 59.3,8.1 59.4,-44 l 0.6,-200.9 60.3,34.8 -0.6,211.1 c -0.1,39.8 -9.1,65.4 -26.8,76.9 -17.7,11.3 -41,8.8 -69.8,-7.8"
           style="fill:#ffffff;fill-opacity:1;fill-rule:nonzero;stroke:none"
           transform="matrix(0.13333333,0,0,-0.13333333,0,1716.04)"
           clip-path="url(#clipPath135)" />
        <path
           id="path136"
           d="m 16382.4,1957.1 -60.3,-34.8 0.5,-198.4 -3.3,-1.9 c -8.5,15 -19.8,24.1 -33.8,27.2 -14.1,3.1 -31.6,-1.3 -52.7,-13.5 -33.5,-19.3 -60.2,-49.2 -80.1,-89.6 -19.8,-40.3 -29.6,-88.8 -29.5,-145.6 0.2,-56.8 10.3,-93.9 30.3,-111.2 20,-17.3 46.8,-16.3 80.3,3.1 21,12.1 38.5,27.8 52.5,47.2 14,19.3 25.2,41.4 33.6,66.2 l 3.3,1.9 0.2,-55.9 60.3,34.8 -1.3,470.5 m -123.9,-493.8 c -22.8,-13.2 -40.5,-15.3 -52.9,-6.3 -12.4,9 -18.6,26.8 -18.7,53.5 l -0.2,53.4 c 0,26.7 6.1,51.7 18.4,74.9 12.3,23.3 29.9,41.5 52.8,54.7 8.8,5.1 17.1,8.6 24.9,10.5 7.8,2 14.6,2.2 20.5,0.4 5.9,-1.7 10.6,-5.2 14.2,-10.5 3.5,-5.4 5.2,-13.2 5.3,-23.4 l 0.3,-109.4 c 0,-10.1 -1.7,-19.9 -5.2,-29.4 -3.5,-9.4 -8.2,-18.5 -14,-26.9 -5.9,-8.5 -12.7,-16.2 -20.5,-23.3 -7.7,-7 -16,-13.1 -24.9,-18.2"
           style="fill:#ffffff;fill-opacity:1;fill-rule:nonzero;stroke:none"
           transform="matrix(0.13333333,0,0,-0.13333333,0,1716.04)"
           clip-path="url(#clipPath137)" />
        <path
           id="path138"
           d="m 16583.6,1938.3 c -30.2,-17.5 -54.9,-38.2 -74,-62.3 -19.2,-24 -32.8,-47.2 -40.9,-69.7 l 36.1,-12.9 c 7.7,18.1 17.2,34.4 28.6,49.3 11.5,14.9 26.4,27.7 44.8,38.3 41,23.7 61.5,13.2 61.6,-31.3 l 0.1,-25.4 -54.8,-31.7 c -42.4,-24.5 -73.8,-51 -94.2,-79.5 -20.4,-28.6 -30.6,-58.8 -30.5,-90.5 0.1,-31 8.8,-50.3 26.2,-57.9 17.4,-7.5 40.7,-2.9 69.8,13.9 22.5,13 41,29.3 55.6,48.7 14.5,19.4 24.5,40.7 30,63.8 l 2.8,1.6 c 1.9,-15.5 7.1,-25.8 15.8,-30.9 8.7,-5.3 21.7,-2.8 39.1,7.2 l 37,21.4 -0.1,54.7 -36,-20.8 -0.4,164.7 c -0.1,37.7 -10.6,60.6 -31.2,68.6 -20.8,8 -49.2,1.6 -85.4,-19.3 m -10.2,-298.9 c -16.3,-9.4 -29,-13.1 -38.2,-11 -9.3,2 -13.9,10.5 -13.9,25.2 l -0.1,12.6 c -0.1,30 21.7,57.5 65.2,82.6 l 53.6,31 0.2,-47.4 c 0,-16 -6.2,-32.7 -18.7,-50 -12.5,-17.4 -28.5,-31.7 -48.1,-43"
           style="fill:#ffffff;fill-opacity:1;fill-rule:nonzero;stroke:none"
           transform="matrix(0.13333333,0,0,-0.13333333,0,1716.04)"
           clip-path="url(#clipPath139)" />
        <path
           id="path140"
           d="m 16928.6,2245.7 -56.4,-32.6 0.2,-82 c 0,-12.7 -2.2,-22.8 -6.6,-30.3 -4.4,-7.3 -11.9,-14.1 -22.6,-20.3 l -62.6,-36.1 0.2,-56.7 88,50.8 0.5,-188.4 c 0.1,-24.5 6.1,-41 17.9,-49.7 11.8,-8.6 30.3,-5.6 55.4,8.9 l 109,62.9 -0.1,56.6 -121.8,-70.3 -0.6,214.9 121.8,70.3 -0.2,56.6 -121.8,-70.3 -0.3,115.7"
           style="fill:#ffffff;fill-opacity:1;fill-rule:nonzero;stroke:none"
           transform="matrix(0.13333333,0,0,-0.13333333,0,1716.04)"
           clip-path="url(#clipPath141)" />
        <path
           id="path142"
           d="m 17196.9,2427.3 -60.4,-34.8 1.4,-470.5 60.3,34.9 -0.6,222.5 c 0,9.3 1.7,18.6 5.2,27.8 3.4,9.2 8.1,17.9 14.1,26 5.8,8 12.5,15.4 19.9,22 7.3,6.6 14.9,12.1 22.6,16.5 39.5,22.8 59.3,8.1 59.4,-44 l 0.6,-200.9 60.3,34.8 -0.6,211.1 c -0.1,39.9 -9,65.5 -26.8,76.9 -17.7,11.4 -41,8.8 -69.8,-7.8 -11.8,-6.8 -22.1,-14.5 -31,-23 -8.8,-8.5 -16.5,-17.5 -23.2,-27.1 -6.6,-9.6 -12.2,-19.6 -16.8,-30.1 -4.6,-10.5 -8.3,-20.8 -11.2,-31 l -2.9,-1.6 -0.5,198.3"
           style="fill:#ffffff;fill-opacity:1;fill-rule:nonzero;stroke:none"
           transform="matrix(0.13333333,0,0,-0.13333333,0,1716.04)"
           clip-path="url(#clipPath143)" />
        <path
           id="path144"
           d="m 17605.2,2668.8 c -15.1,-8.7 -25.7,-18.4 -31.7,-29.1 -6.1,-10.8 -9.1,-21.4 -9.1,-32 v -13.3 c 0.1,-10.7 3.1,-17.8 9.3,-21.5 6,-3.7 16.8,-1.1 32.4,7.9 15.1,8.7 25.7,18.4 31.7,29.2 6.1,10.7 9.1,21.3 9.1,31.9 l -0.1,13.4 c 0,10.6 -3.1,17.7 -9.2,21.4 -6.1,3.7 -16.9,1.1 -32.4,-7.9 m 30.9,-130.5 -157.7,-91.1 0.2,-56.6 97.3,56.2 0.6,-214.9 -97.3,-56.2 0.1,-56.5 249,143.7 -0.1,56.6 -91.3,-52.7 -0.8,271.5"
           style="fill:#ffffff;fill-opacity:1;fill-rule:nonzero;stroke:none"
           transform="matrix(0.13333333,0,0,-0.13333333,0,1716.04)"
           clip-path="url(#clipPath145)" />
        <path
           id="path146"
           d="m 17924.9,2712.7 c -36.5,-21.1 -65.9,-46.8 -88.2,-77.1 -22.2,-30.3 -33.3,-62.1 -33.2,-95.6 0,-17 2.9,-29.3 8.6,-37.1 5.8,-7.6 13.2,-12.4 22.3,-14.2 9.1,-1.7 19.3,-1.2 30.7,1.6 11.5,2.7 22.7,6.4 33.8,11.2 l 45.4,17.9 c 5.9,2.6 11.5,4.6 16.9,6 5.3,1.3 10,1.7 14.1,1.1 4.1,-0.6 7.2,-2.6 9.5,-6.1 2.2,-3.3 3.3,-8.4 3.3,-15.2 0.1,-16.1 -5.9,-31.4 -17.9,-46 -11.9,-14.5 -27.7,-27.4 -47.3,-38.7 -21.3,-12.4 -39.9,-19 -55.6,-19.7 -15.7,-0.8 -29.8,3 -42.4,11.5 l -37,-59.6 c 13.7,-11.2 31.7,-16.1 54.1,-14.6 22.3,1.4 49,11.1 80,29 39.1,22.5 69.8,49.7 92.1,81.4 22.2,31.9 33.3,64.2 33.2,97.3 -0.1,16.9 -2.9,29.3 -8.7,37 -5.8,7.7 -13.1,12.4 -22.2,14.2 -9,1.8 -19.2,1.1 -30.5,-1.9 -11.3,-3.2 -22.6,-7 -34,-11.5 l -45.4,-17.9 c -11.8,-5.1 -22.1,-7.5 -30.8,-7.2 -8.7,0.2 -13,7.4 -13.1,21.4 -0.1,29.2 20,55.4 60.2,78.7 22.5,12.9 40.7,19.3 54.3,18.9 13.7,-0.4 24.2,-3.3 31.6,-8.8 l 33.7,60.2 c -13,8.6 -29.2,11.9 -48.5,9.8 -19.5,-2 -42.4,-10.7 -69,-26"
           style="fill:#ffffff;fill-opacity:1;fill-rule:nonzero;stroke:none"
           transform="matrix(0.13333333,0,0,-0.13333333,0,1716.04)"
           clip-path="url(#clipPath147)" />
      </g>
      <g
         id="g157">
        <path
           id="path111"
           d="m 14773.452,1384.6757 c -735.689,377.4978 -2581.722,1488.2056 -2581.722,1488.2056 -2.993,642.0917 93.832,1956.1032 94.762,2922.8026 190.4,109.02 672.416,420.9226 909.116,552.7926 343.4,191.35 537.09,273.3835 857.49,105.6135 317,-166.02 556.797,-652.0311 573.2,-1045.21 9.9,-101.29 -10.906,-872.5542 -601.606,-1476.2542 l 3330.613,-1059.0408 -357.84,-202.205 -3279.094,1005.8182 c -62.8,16.66 -109.7,66.65 -122.3,130.44 -12.6,63.75 40.922,103.7434 77.229,156.5999 574.833,588.8977 660.652,1352.6355 654.4,1415.3719 6.475,286.4094 -188,690.48 -413.8,808.72 -229.1,119.96 -353.326,117.6759 -606.826,-23.5341 -218.3,-121.64 -694.846,-392.0849 -817.346,-462.4649 l -15.418,-2662.0883 2571.715,-1494.6274"
           style="display:inline;fill:#dedede;fill-opacity:1;fill-rule:nonzero;stroke:none"
           transform="matrix(0.13333333,0,0,-0.13333333,0,1716.04)" />
        <path
           id="path157"
           d="m 12192.717,2872.8813 c -2.993,642.0917 7.278,2012.7273 8.208,2979.4267 0,0 727.696,416.3745 964.396,548.2445 343.4,191.35 567.377,221.3075 887.777,53.5375 317,-166.02 556.797,-652.0311 573.2,-1045.21 9.9,-101.29 -6.536,-874.0108 -597.236,-1477.7108 l -378.474,-218.2603 c -29.7,28.2352 -39.489,31.2861 -54.517,94.7293 -12.6,63.75 40.922,103.7434 77.229,156.5999 574.833,588.8977 660.652,1352.6355 654.4,1415.3719 6.475,286.4094 -188,690.48 -413.8,808.72 -229.1,119.96 -353.326,117.6759 -606.826,-23.5341 -218.3,-121.64 -694.846,-392.0849 -817.346,-462.4649 l -14.431,-2667.0227"
           style="display:inline;fill:#bebebe;fill-opacity:1;fill-rule:nonzero;stroke:none"
           transform="matrix(0.13333333,0,0,-0.13333333,0,1716.04)" />
      </g>
      <path
         style="display:none;fill:none;stroke:#ff0000;stroke-width:3.7114px;stroke-linecap:butt;stroke-linejoin:miter;stroke-opacity:1"
         d="M 1324.1861,1505.5408 2615.5299,762.87485"
         id="path159" />
      <path
         style="display:none;fill:none;stroke:#ff0000;stroke-width:3.7114px;stroke-linecap:butt;stroke-linejoin:miter;stroke-opacity:1"
         d="M 1147.8027,1213.2976 2439.1465,470.63169"
         id="path160" />
      <path
         style="display:none;fill:none;stroke:#ff0000;stroke-width:3.7114px;stroke-linecap:butt;stroke-linejoin:miter;stroke-opacity:1"
         d="M 1505.7573,1797.784 2797.1011,1055.118"
         id="path161" />
      <path
         style="display:none;fill:none;stroke:#ff0000;stroke-width:3.7114px;stroke-linecap:butt;stroke-linejoin:miter;stroke-opacity:1"
         d="m 1455.3517,2011.3763 1291.3438,-742.666"
         id="path161-9" />
      <path
         style="display:none;fill:none;stroke:#ff0000;stroke-width:3.7114px;stroke-linecap:butt;stroke-linejoin:miter;stroke-opacity:1"
         d="M 2451.2512,1808.1595 1159.9074,1065.4935"
         id="path162" />
      <path
         style="display:none;fill:none;stroke:#ff0000;stroke-width:3.7114px;stroke-linecap:butt;stroke-linejoin:miter;stroke-opacity:1"
         d="M 2615.5299,1505.5408 1324.1861,762.87485"
         id="path1" />
      <path
         style="display:none;fill:none;stroke:#ff0000;stroke-width:3.7114px;stroke-linecap:butt;stroke-linejoin:miter;stroke-opacity:1"
         d="M 2930.8263,1292.9325 1639.4825,550.26654"
         id="path162-5" />
      <path
         style="display:none;fill:none;stroke:#ff0000;stroke-width:2.368;stroke-linecap:butt;stroke-linejoin:miter;stroke-dasharray:none;stroke-opacity:1"
         d="M 1970.16,510.93628 V 1758.9866"
         id="path163" />
      <path
         style="display:none;fill:none;stroke:#ff0000;stroke-width:2.368;stroke-linecap:butt;stroke-linejoin:miter;stroke-dasharray:none;stroke-opacity:1"
         d="M 2474.1429,681.9047 V 1929.955"
         id="path163-8" />
      <path
         style="display:none;fill:none;stroke:#ff0000;stroke-width:2.368;stroke-linecap:butt;stroke-linejoin:miter;stroke-dasharray:none;stroke-opacity:1"
         d="M 2314.7697,607.48411 V 1855.5344"
         id="path163-3" />
      <path
         style="display:none;fill:none;stroke:#ff0000;stroke-width:3.7114px;stroke-linecap:butt;stroke-linejoin:miter;stroke-opacity:1"
         d="M 2069.704,1772.2207 778.36023,1029.5548"
         id="path162-5-2-4" />
      <path
         style="display:none;fill:none;stroke:#ff0000;stroke-width:2.368;stroke-linecap:butt;stroke-linejoin:miter;stroke-dasharray:none;stroke-opacity:1"
         d="M 1626.6527,558.66765 V 1806.7179"
         id="path163-3-5" />
      <path
         style="display:none;fill:none;stroke:#ff0000;stroke-width:3.7114px;stroke-linecap:butt;stroke-linejoin:miter;stroke-opacity:1"
         d="M 2922.5958,1101.9085 1631.252,359.24262"
         id="path162-5-2" />
      <path
         style="display:none;fill:none;stroke:#ff0000;stroke-width:2.368;stroke-linecap:butt;stroke-linejoin:miter;stroke-dasharray:none;stroke-opacity:1"
         d="M 1466.5156,781.09728 V 2029.1476"
         id="path163-9" />
    </g>
  </g>
</svg>
